<?xml version="1.0" standalone="no"?><!DOCTYPE svg PUBLIC "-//W3C//DTD SVG 1.1//EN" "http://www.w3.org/Graphics/SVG/1.1/DTD/svg11.dtd"><svg t="1494763377688" class="icon" style="" viewBox="0 0 1024 1024" version="1.1" xmlns="http://www.w3.org/2000/svg" p-id="1149" xmlns:xlink="http://www.w3.org/1999/xlink" width="200" height="200"><defs><style type="text/css"></style></defs><path d="M993.585 521.484l-468.663-438.634-468.674 437.341c-9.164 8.563-9.681 22.949-1.104 32.114 8.553 9.164 22.943 9.675 32.107 1.108l437.637-408.374 437.648 409.617c4.043 3.798 9.5 6.13 15.5 6.13 0.007 0 0.017 0 0.025 0 0.012 0 0.023 0 0.038 0 6.523 0 12.402-2.761 16.531-7.175 8.581-9.178 8.117-23.555-1.047-32.125z" p-id="1150" fill="#1296db"></path><path d="M850.566 530.494c-12.541 0-22.721 10.176-22.721 22.718v348.384h-181.761v-242.349h-242.358v242.349h-181.767v-348.384c0-12.542-10.162-22.718-22.719-22.718-12.559 0-22.721 10.176-22.721 22.718v393.825h272.647v-242.346h151.468v242.349h272.656v-393.827c0-12.542-10.181-22.718-22.723-22.718zM691.521 204.83h136.323v121.171c0 12.565 10.181 22.727 22.721 22.727 12.543 0 22.723-10.16 22.723-22.727v-166.614h-181.77c-12.541 0-22.721 10.16-22.721 22.719 0 12.561 10.181 22.723 22.721 22.723z" p-id="1151" fill="#1296db"></path><path d="M207.201 910.673h209.521v-232.121h203.362v232.121h225.957v-359.478h125.302l-446.441-423.155-462.357 417.259 142.599 5.898z" p-id="1152" fill="#1296db"></path></svg>